<svg width="287" height="71" viewBox="0 0 240 59" fill="none" xmlns="http://www.w3.org/2000/svg">
<path d="M31.7666 29.7138C32.5139 30.624 33.8184 31.1597 34.5854 32.0699C34.038 29.3753 31.9993 27.1736 29.5903 26.6511C30.767 27.5515 31.0193 28.8035 31.7666 29.7138ZM2.80236 36.5424C4.46083 32.8553 6.93871 33.6374 7.98755 30.1245C7.3943 31.2024 4.69027 31.6559 3.43494 34.4196C4.07735 32.7798 3.75615 30.2691 4.83776 28.9152C1.5962 31.3536 2.97607 35.3035 2.80236 36.5424ZM5.80793 45.3822C6.10619 46.8183 5.23107 48.8886 6.62078 50.8701C5.17863 49.2238 2.13045 48.8031 0.881679 46.2958C2.43855 52.4212 6.48968 51.1593 8.31859 52.4902C6.81744 50.2852 8.04654 48.8228 5.80793 45.3822ZM5.34251 49.227C4.44444 45.8029 6.03736 44.6231 4.82793 41.3369C4.7001 43.1871 3.49394 44.0908 4.31006 47.4722C2.87119 44.6067 0.64569 43.5387 -2.50062e-07 41.5735C0.0426087 46.9497 4.27401 47.745 5.34251 49.227ZM11.8387 54.968C10.5932 53.2099 11.4422 52.2142 7.94494 49.02C8.68568 50.1866 7.92199 51.6522 10.2819 53.9328C7.97443 52.5428 4.7886 53.1376 3.25467 51.2809C5.88987 56.4303 10.5244 54.3272 11.8387 54.968ZM28.7709 53.9328C31.1308 51.6522 30.3671 50.1866 31.1078 49.02C27.6073 52.2142 28.4595 53.2099 27.214 54.968C28.5284 54.3272 33.1629 56.4303 35.8014 51.2842C34.2675 53.1376 31.0816 52.5428 28.7709 53.9328ZM32.432 50.8701C33.8217 48.8919 32.9466 46.8183 33.2448 45.3822C31.0062 48.8196 32.2386 50.2852 30.7342 52.4902C32.5631 51.1593 36.6142 52.4212 38.1711 46.2958C36.9223 48.8031 33.8709 49.2238 32.432 50.8701ZM26.8437 55.2112C25.4736 54.8398 24.0675 54.6525 23.0187 54.6262C21.7109 54.5934 20.5408 54.8464 19.5313 55.2309C18.5185 54.8464 17.3484 54.5934 16.0406 54.6262C14.9918 54.6525 13.5824 54.8365 12.2157 55.2112C10.1114 55.7829 8.29237 56.2266 6.706 55.4083C8.22353 56.7852 10 57.2749 12.5631 56.9956C14.6968 56.7622 16.4176 55.6712 18.43 55.6877L18.5087 55.6909C16.3881 56.7819 15.1917 58.3199 15.1917 58.3199L16.1619 58.4546C16.1619 58.4546 17.1845 56.358 19.5313 55.8158C21.8781 56.3613 22.9007 58.4546 22.9007 58.4546L23.8709 58.3199C23.8709 58.3199 22.6745 56.7819 20.5539 55.6909L20.6326 55.6877C22.645 55.6745 24.3658 56.7622 26.4995 56.9956C29.0626 57.2782 30.8358 56.7852 32.3566 55.4083C30.767 56.2266 28.9446 55.7829 26.8437 55.2112ZM4.97214 37.6301C4.10357 39.3291 2.75647 39.7201 2.89741 43.2265C2.16978 40.1079 0.429368 38.9512 0.452311 36.9565C-0.757129 42.1552 2.4746 42.773 3.30383 44.9485C3.18256 41.8299 5.13602 41.1989 4.97214 37.6301ZM6.18486 33.6177C5.88332 34.0482 5.67027 34.2322 4.86398 34.9092C3.76598 35.8326 2.88758 37.0485 2.51721 38.8165C2.60243 36.9105 1.4487 34.1731 2.21567 32.1751C-0.753852 36.457 2.38282 39.0202 2.49754 40.568C3.2645 37.5874 5.03441 37.5644 6.18486 33.6177ZM36.5356 38.8165C36.1652 37.0452 35.2868 35.8326 34.1888 34.9092C33.3825 34.2322 33.1695 34.0482 32.8679 33.6177C34.0184 37.5644 35.7883 37.5874 36.5552 40.5713C36.6667 39.0235 39.8066 36.457 36.8371 32.1784C37.6073 34.1731 36.4536 36.9105 36.5356 38.8165ZM39.056 41.5768C38.4104 43.542 36.1849 44.61 34.746 47.4755C35.5621 44.094 34.3527 43.1903 34.2248 41.3402C33.0154 44.6264 34.6083 45.8061 33.7103 49.2303C34.782 47.745 39.0102 46.9497 39.056 41.5768ZM34.0839 37.6301C33.92 41.1989 35.8735 41.8299 35.7489 44.9517C36.5782 42.773 39.8099 42.1552 38.6005 36.9598C38.6234 38.9512 36.883 40.1112 36.1554 43.2298C36.2996 39.7201 34.9525 39.3291 34.0839 37.6301ZM7.28614 29.7138C8.03343 28.8035 8.28909 27.5515 9.46247 26.6511C7.05343 27.1768 5.01475 29.3753 4.46739 32.0699C5.23107 31.1597 6.53884 30.6207 7.28614 29.7138ZM31.0652 30.1245C32.1141 33.6374 34.5919 32.8553 36.2504 36.5424C36.0767 35.3035 37.4566 31.3536 34.215 28.9119C35.2999 30.2658 34.9787 32.7765 35.6178 34.4163C34.3625 31.6559 31.6585 31.2024 31.0652 30.1245ZM22.6516 32.1192C22.0288 31.8563 21.3668 31.669 20.6785 31.5705C20.6752 31.7183 20.6719 31.8695 20.6686 32.0207C21.3045 32.116 21.9141 32.2901 22.491 32.5333C22.5696 32.4084 22.6221 32.2737 22.6516 32.1192ZM22.1501 27.7716L22.2812 27.65L22.0288 27.5416L21.3668 27.5285L21.1931 27.65L20.803 27.6172L20.7965 27.7125C21.0456 27.7289 21.2881 27.7519 21.4782 27.7881L21.8027 27.7585L22.1501 27.7716ZM20.8751 42.3491C20.8751 42.2341 20.7276 42.1223 20.5048 42.0139H20.4654C20.4621 42.1059 20.4556 42.566 20.4523 42.7894C20.7244 42.6646 20.8751 42.5298 20.8751 42.3491ZM13.2022 33.759C13.2186 33.667 13.235 33.5914 13.2579 33.5093C13.176 33.529 13.081 33.5389 12.9859 33.5389L13.2022 33.759ZM19.5411 53.6437C26.9912 53.6437 33.0547 47.4558 33.0547 39.8516C33.0547 32.7206 27.7221 26.8351 20.9112 26.1318L20.8948 26.2107C20.8686 26.3454 20.8423 26.467 20.8227 26.5722C23.8741 26.8778 26.6175 28.2547 28.6922 30.3316L27.2009 31.8531L27.2566 31.5869L27.06 31.4982L26.7912 31.4817L26.8469 31.3076L26.6667 30.6832L26.2963 30.2691L25.1295 29.6415L25.0311 29.7499L24.8181 29.8123C25.218 30.4137 25.4343 31.1104 25.4343 31.8103C25.4343 31.9023 25.431 31.9911 25.4277 32.0798L26.0046 32.8192L25.7325 32.8849L25.9128 33.161L25.4048 33.6802L25.2016 33.2825C25.1032 33.5619 24.9754 33.8182 24.8148 34.0581C24.8541 34.0942 24.8935 34.1271 24.9295 34.1665L23.3596 35.7669C23.2645 35.6749 23.1662 35.5862 23.0646 35.5007C22.9138 35.573 22.7598 35.6387 22.6057 35.6979C22.6516 35.734 22.6942 35.7669 22.7401 35.803L22.6614 35.8852L22.4779 35.9903L22.409 36.1777L22.2943 36.0594L21.9633 36.1711L22.0551 36.319L22.2845 36.2565L22.432 36.2697L22.4418 36.1875L22.5565 36.1284L22.5926 36.0594L22.7991 36.0002L22.9597 35.9936C22.9925 36.0232 23.022 36.0495 23.0547 36.0791L22.432 36.7133L22.3861 36.6443L21.7371 36.756L21.5929 36.9039L21.4487 36.9203L21.8551 36.526L21.7109 36.4504L21.334 36.9663L21.4454 36.9532L21.4389 37.1438L21.5765 37.1997L21.6028 37.4034L21.3766 37.3574L21.1406 37.4034L20.5703 37.1044C20.5703 37.1044 20.5375 38.6686 20.5244 39.4573C21.8715 39.9206 23.3038 40.5877 23.3038 42.3458C23.3038 43.118 22.9761 43.7391 22.3337 44.1992H22.3402L22.3107 44.2189L22.3074 44.2156L22.2648 44.2452C21.7207 44.6133 21.0193 44.8071 20.4097 45.0043L20.39 46.2333C21.3569 46.723 22.5303 47.4394 22.4222 49.4801C22.409 49.9829 22.2157 50.1209 22.0518 50.1669C21.4848 50.3082 20.9013 50.4035 20.3048 50.4495C20.3015 50.6072 20.2983 50.7584 20.2983 50.8997C22.9007 50.719 25.254 49.5951 27.0338 47.8633L28.6037 49.4636C26.2537 51.7705 23.0613 53.1902 19.5477 53.1902C16.0538 53.1902 12.8777 51.7837 10.531 49.4998L12.101 47.8961C13.8643 49.5951 16.1816 50.6992 18.7414 50.8931C18.7381 50.7551 18.7381 50.604 18.7348 50.4429C16.2963 50.249 14.0905 49.1942 12.4123 47.5807L12.8319 47.1535L13.4054 47.2192L13.7103 46.884L14.5133 46.9136L14.6313 46.631L14.6018 46.5127C15.7653 47.4131 17.1681 48.0046 18.6922 48.1656C18.689 47.9914 18.6857 47.837 18.6824 47.7154C16.9977 47.5248 15.4736 46.7788 14.2871 45.6648L15.8571 44.0612C16.2373 44.4095 16.6667 44.702 17.1321 44.932C17.1681 44.7808 17.2206 44.6395 17.2894 44.5114C16.883 44.3044 16.5061 44.048 16.1685 43.7424L17.7417 42.1355C17.9908 42.3392 18.276 42.5035 18.5841 42.612C18.5808 42.451 18.5775 42.2866 18.5742 42.1289C18.3874 42.0468 18.2137 41.9416 18.0531 41.8167L18.4989 41.3632C18.3415 41.3139 18.1842 41.2647 18.0302 41.2088L17.7352 41.5111C17.5844 41.3402 17.4566 41.1496 17.3582 40.9426C17.0862 40.821 16.824 40.683 16.5814 40.5187C15.6146 39.868 15.1229 38.9545 15.1229 37.7944C15.1229 36.9105 15.3655 36.2401 15.7588 35.7242L14.1921 34.1271C15.3196 33.0262 16.7716 32.2704 18.3841 32.0207C18.3809 31.8662 18.3776 31.715 18.3743 31.5705C16.6437 31.8235 15.0869 32.6319 13.8807 33.8116L13.6152 33.5422C13.5562 33.6506 13.4841 33.7853 13.4054 33.9595L13.5726 34.1304C12.2255 35.596 11.3864 37.5546 11.3537 39.7103H9.12816C9.16421 36.9302 10.2491 34.4031 11.9993 32.5267L12.704 33.2464C12.7368 33.2464 12.7696 33.2464 12.8024 33.2431C12.9269 33.2333 13.0678 33.1938 13.2022 33.1248L12.3042 32.208C12.7794 31.7413 13.2973 31.3174 13.8512 30.9494C13.8938 30.7982 13.9364 30.6635 13.9594 30.6175C13.9856 30.5616 14.1265 30.371 14.3002 30.1508C13.4579 30.6273 12.6811 31.2155 11.9961 31.8925L10.4261 30.2921C12.4844 28.2481 15.1983 26.8877 18.2104 26.5755C18.2006 26.5196 18.1908 26.4769 18.1908 26.4769C18.1711 26.3717 18.1481 26.2534 18.1252 26.1318C11.334 26.8548 6.02426 32.7305 6.02426 39.8483C6.02753 47.4591 12.0911 53.6437 19.5411 53.6437ZM22.4582 44.117V44.1072V44.117ZM29.0003 30.6503C31.2094 33.0164 32.5795 36.204 32.6155 39.7136H30.3966C30.3736 37.9752 29.9607 36.3321 29.2363 34.8763L29.256 34.8369L29.41 34.9191L29.4461 34.8008L29.0495 34.0909L28.5808 33.4271L28.0302 32.9572C27.8401 32.714 27.6434 32.4807 27.4369 32.2573L29.0003 30.6503ZM26.1717 33.5553L26.706 33.5783L26.8338 33.736L26.7715 33.9661L27.5123 34.436L27.6565 34.4163L28.6037 35.5237L28.9905 35.3857C29.5903 36.7034 29.9345 38.1691 29.9541 39.7136H27.7319C27.7221 39.1221 27.65 38.547 27.5254 37.9883L27.627 37.847L27.7647 37.1372L27.6598 36.3748L27.391 35.4974L26.7715 34.574L26.9223 34.6562L26.9977 34.5773L26.4995 34.2322L26.4667 34.344L26.9649 35.0702L27.2468 35.665L27.4467 36.2532L27.5123 36.6509L27.6172 37.318L27.4304 37.3311C27.4304 37.3311 27.2173 36.9236 27.1485 36.7527L27.2468 36.6016L27.0567 36.3255V36.0495L26.9223 35.8753L26.7552 35.8983C26.6962 35.7833 26.6306 35.6716 26.5651 35.5599L26.6831 35.6223L26.7158 35.5894L26.6536 35.4481L26.7978 35.366L26.7322 35.2838L26.5192 35.366L26.5978 35.0209L26.47 34.9453L26.3553 35.2214C26.1128 34.85 25.844 34.4984 25.549 34.1731L26.1717 33.5553ZM25.7293 38.869L26.1259 38.6489L26.5323 38.5831L26.6208 38.3794L26.8469 38.2414L26.9354 38.0475L27.0075 37.7123C27.0403 37.8306 27.0698 37.9489 27.096 38.0705L26.8797 38.7277L26.8699 38.9479L27.1845 38.5207C27.2501 38.9085 27.2894 39.3061 27.296 39.7136H25.3491L25.3032 39.5427L25.5293 39.3587L25.5752 39.2469L25.6736 39.1746L25.9358 39.1484L25.962 39.0301L25.7293 38.869ZM23.0613 37.3081L23.2612 37.2621L23.2514 37.2128L23.0547 37.0781L23.1236 36.6509L23.3596 36.4077C23.5103 36.5786 23.648 36.7626 23.7725 36.9532L23.6873 37.2161L23.471 37.0584L23.3071 37.1044L23.3891 37.2621H23.471L23.3825 37.4921L23.3202 37.4001L23.0613 37.3081ZM23.9135 44.8367L23.4349 44.6954L23.2874 44.7513L23.0154 44.541L22.7598 44.4457C22.8843 44.3537 23.0089 44.2551 23.1268 44.1532L23.5234 44.4358L23.825 44.5968L23.9757 44.748L23.9135 44.8367ZM23.6676 36.0922L25.2376 34.4886C25.6047 34.896 25.9325 35.343 26.2078 35.8195L26.0111 35.8753L26.021 36.2335L26.611 36.6114C26.7552 36.9368 26.8764 37.2752 26.978 37.6236L26.8764 37.778L26.6634 37.916L26.611 38.2479L26.4667 38.3301L26.3455 38.478L26.2209 38.432L26.0046 38.4221L26.1291 38.2479L26.2209 37.7944L26.3651 37.7024L25.9423 37.2884L25.6277 37.4001L25.5556 37.7057L25.3556 37.9259L25.1491 37.7517L25.077 37.5644L25.195 37.4888L25.2606 37.6104L25.3589 37.5743L25.3163 37.3705L25.1786 37.3607L25.1688 37.4428L25.077 37.4626L24.5887 36.8809L24.4248 36.7495L24.4871 36.6804L24.6345 36.6279L24.4969 36.572L24.3035 36.6114L24.4018 36.7363L24.1527 36.733C24.0085 36.5128 23.8479 36.296 23.6676 36.0922ZM24.4674 44.6231L24.2543 44.4062L24.4182 44.1893L24.6247 43.7654L24.5461 43.6438L24.6837 43.3284L24.6673 43.0425L24.5854 42.7467L24.392 42.6777L24.3199 42.8453L24.2052 42.8124C24.3723 42.5397 24.5493 42.2834 24.6706 41.9843L24.8705 41.8956L24.982 41.7411L25.0377 41.8069L25.1721 41.6393L25.0639 41.5013L25.1622 41.475L25.3425 41.5473L25.6867 41.5571L25.8932 41.4454L26.434 41.2975L26.3323 41.1135L26.2963 40.89L26.588 41.0215L26.6962 40.9558L26.6404 40.7257L26.2832 40.8637L25.8899 40.7816L25.5916 40.1572H27.2894C27.214 42.1519 26.411 43.9593 25.1459 45.3132L24.9131 45.0766L25.0147 44.7578L24.8345 44.0579L24.4674 44.6231ZM24.7689 49.043L24.9787 48.5862L24.8968 48.3825L25.2049 48.1065V47.9421L24.9426 47.7746L25.159 47.3309L25.4834 46.8971L25.159 46.539H24.9164L24.7657 46.2892C24.8968 46.1775 25.0246 46.0658 25.1491 45.9474L26.7191 47.5511C26.1291 48.1229 25.4736 48.6257 24.7689 49.043ZM26.7257 46.9267L26.8994 46.7295L26.7355 45.8521L26.6208 45.8061L26.6896 45.6583L26.3192 45.54L26.2471 45.8521L26.2111 46.2498L26.1324 46.3221L25.454 45.632C26.8011 44.1992 27.65 42.2801 27.7253 40.1605H29.9476C29.8722 42.9044 28.7709 45.3888 27.0239 47.2356L26.7257 46.9267ZM27.3386 47.5511C29.1642 45.6254 30.3147 43.026 30.3933 40.1605H32.6155C32.5369 43.6504 31.1373 46.815 28.9118 49.1515L27.3386 47.5511ZM13.9725 45.3559C13.8119 45.1883 13.6578 45.0109 13.5136 44.8269L13.5824 44.2551L13.3464 43.703L13.2907 42.842L13.0285 42.3195L13.0842 41.9942L12.7663 41.3731L12.491 41.2318L12.6024 40.9032L12.4877 40.6403L12.6024 40.3412H12.9072L13.0154 40.1605H13.5333L13.6152 40.3182L13.5169 40.8572L13.4546 40.9492L13.6513 41.383L13.5234 41.4552L13.4349 41.3402L13.3989 41.383L13.4874 41.6393L13.6382 41.9383L13.7103 41.9317L13.7529 41.6623L13.6775 41.5637L13.6709 41.383L13.648 41.0083L13.7561 40.3445L13.6513 40.1638H14.0249C14.097 41.5538 14.6673 42.8092 15.5523 43.7556L13.9725 45.3559ZM12.5041 40.9229L12.2943 41.2581H11.9338L11.9076 41.2351C11.8453 40.8835 11.806 40.5253 11.7929 40.1572H12.4615L12.3009 40.7027L12.5041 40.9229ZM13.235 39.3685L13.2776 38.9183L13.5398 38.7639L14.0118 38.8493L14.0839 38.9348C14.0446 39.1878 14.0184 39.4507 14.0118 39.7136H13.4808L13.235 39.3685ZM15.4867 41.0609L15.5982 41.005L15.8899 41.2285L15.762 41.3337L16.0865 41.5538L16.0669 41.3139L16.2406 41.0215L16.4241 41.2186L16.611 41.4914L16.2734 41.567L16.4274 41.8759L16.6634 41.751L16.6339 41.6524L16.8076 41.5308L16.9125 41.0379C17.0403 41.3304 17.214 41.5998 17.4238 41.8332L15.8538 43.4335C15.1032 42.6317 14.6051 41.5867 14.4805 40.4267L14.8017 40.775L15.1032 40.7684L15.4867 41.0609ZM13.8807 34.4491L15.4507 36.0495C15.1229 36.4175 14.841 36.8283 14.6182 37.2752L14.5067 37.2687L14.2871 37.3377L14.2117 37.3311L13.9757 37.5546L14.274 37.5053L14.5395 37.4363C14.5231 37.4724 14.5067 37.5053 14.4936 37.5414L14.2609 37.6893H14.1495L13.802 37.9588L13.471 37.9292L12.9859 38.846L13.0842 39.0301L12.822 39.3258L12.7827 39.7103H11.7896C11.8224 37.6827 12.609 35.8326 13.8807 34.4491ZM11.8519 46.539L12.3501 46.8347L12.4517 46.907L12.0911 47.2751C11.9207 47.0976 11.7601 46.9136 11.6028 46.723L11.8519 46.539ZM11.3537 40.1605C11.3602 40.3807 11.3799 40.5976 11.4028 40.8144L11.1308 40.8769L11.0751 41.1595L10.508 41.8923L10.5211 42.9045L9.941 43.1016L9.62308 43.1049C9.32809 42.1716 9.15765 41.1858 9.12816 40.1605H11.3537ZM9.16093 43.0918L9.02983 43.0655L8.90528 42.9242L8.28253 42.8683L8.47591 43.1378L7.89905 43.026L8.04982 42.8847L7.90888 42.7434L7.49263 42.9275L7.34186 43.2101L7.40085 43.8541L7.87938 45.024L8.1121 45.3921L8.2432 45.4414L7.87938 44.7381L7.80072 44.3799L7.88266 44.2912L7.8335 44.094L8.04982 44.1236L8.38414 44.6395L8.46935 44.6757L8.45952 44.2978L8.5939 44.3766L8.6234 44.5837L8.97739 44.679L9.12488 44.5705L9.17732 44.6067L9.17076 44.8827L9.32481 45.0766L9.51164 45.1193L9.92462 45.8291L10.1737 45.9014L10.2524 45.5695C10.685 46.3023 11.1996 46.976 11.783 47.5872L10.213 49.1876C7.9646 46.8479 6.54867 43.6668 6.47001 40.1572H8.69223C8.71845 41.1759 8.88233 42.1618 9.16093 43.0918ZM10.118 30.6142L11.688 32.2145C9.85906 34.1731 8.72501 36.8119 8.68895 39.7136H6.47001C6.50279 36.1842 7.88594 32.9802 10.118 30.6142ZM26.1947 29.7861L26.0603 29.5659L25.7719 29.418L25.5457 29.5955L25.8342 29.7532L26.1586 29.9931L26.1947 29.7861ZM24.8476 36.1809L24.8574 36.3551L25.2409 36.2368L25.3589 35.9969L25.0934 35.642L25.2343 35.4251L25.5949 35.6847L25.6604 35.6322L25.5883 35.5796L25.5064 35.4218L25.6539 35.3331L25.5097 35.1392L25.1754 35.3134L25.0574 35.5204L24.9885 35.7077L25.136 35.9608L25.0803 36.0791L24.8476 36.1809ZM8.79056 46.3451L8.81678 46.2432L8.61685 45.7996L8.38086 45.7108L8.79056 46.3451ZM17.8696 37.8273C17.8696 38.2085 18.0957 38.4747 18.5087 38.708C18.5087 38.708 18.5087 38.6423 18.5054 38.5404L18.2465 38.2742L18.3841 38.0212L18.4956 37.9883C18.4857 37.5447 18.4792 37.0485 18.4759 36.9795L18.4562 36.9828C18.0793 37.1931 17.8696 37.456 17.8696 37.8273Z" fill="#1E7FB8"/>
<path d="M20.3511 47.6497C21.0459 48.0079 21.6916 48.5041 21.9604 49.4505C22.0784 47.8896 21.2196 47.2126 20.3707 46.7559L20.3511 47.6497Z" fill="#1E7FB8"/>
<path d="M24.9824 31.8137C24.9824 30.3941 23.9729 28.8233 21.5049 28.2679C21.3213 28.2285 21.0427 28.1989 20.751 28.1792C20.7477 28.3928 20.7346 28.8824 20.7346 28.8824C20.7313 29.0369 20.7182 29.6021 20.7149 29.727C20.9411 29.7467 21.1115 29.7763 21.1902 29.796C22.6258 30.1476 23.1371 30.9856 23.1371 31.817C23.1371 33.161 22.0096 33.6704 20.6232 34.0549C20.4724 34.0976 20.3184 34.137 20.1643 34.1765C19.7448 34.2816 19.3089 34.3868 18.8828 34.5051C18.7287 34.5478 18.5779 34.5905 18.4272 34.6365C16.89 35.113 15.5691 35.8688 15.5691 37.8077C15.5691 39.7268 17.0768 40.4432 18.5452 40.9065C18.5353 40.3545 18.5255 39.7991 18.5124 39.2437C17.8634 38.9348 17.4046 38.5241 17.4046 37.834C17.4046 37.1603 17.8208 36.7561 18.4599 36.4603C18.6009 36.3946 18.7517 36.3355 18.9155 36.2796C19.2826 36.1515 19.6923 36.0463 20.125 35.9378C20.2757 35.9017 20.4298 35.8623 20.5838 35.8228C22.6618 35.3102 24.9824 34.6464 24.9824 31.8137Z" fill="#1E7FB8"/>
<path d="M17.5418 45.3462C17.5451 46.1218 18.1023 46.5457 18.6627 46.8644C18.6595 46.733 18.6398 45.5335 18.6365 45.5138C18.6496 45.2739 18.8758 45.1326 19.0593 45.0439C19.3281 44.9125 19.6001 44.8204 19.9509 44.6988C20.1147 44.6397 20.2589 44.5838 20.4163 44.5345C21.5405 44.1895 22.8384 43.7491 22.8384 42.3525C22.8384 40.9559 21.724 40.3841 20.5048 39.9536C20.4949 40.4005 20.4818 41.0479 20.4753 41.4948C20.9899 41.7019 21.3307 41.9516 21.3307 42.3492C21.3307 42.8487 20.8096 43.1346 20.4359 43.2825C20.2819 43.3449 20.0459 43.4238 19.9804 43.4435C19.6821 43.5388 19.3609 43.6473 19.0593 43.7623C18.902 43.8214 18.748 43.8872 18.6038 43.9627C18.0826 44.2355 17.5353 44.6397 17.5418 45.3462Z" fill="#1E7FB8"/>
<path d="M18.3022 28.3994C17.5549 28.6163 17.1157 28.9055 16.9485 28.9614C16.4634 29.1257 15.7817 29.1552 15.077 29.9373C14.9524 30.0754 14.6443 30.4697 14.428 30.7917C14.215 31.1039 14.2051 31.6067 14.0511 31.8762C13.8249 32.2672 13.8774 32.4907 13.8774 32.4907L13.8839 32.5038C13.8774 32.5531 13.8315 32.7602 13.625 32.9935C13.389 33.2597 13.0776 33.4075 12.7073 33.3484C13.0285 33.5127 13.4742 33.2827 13.4742 33.2827C13.4742 33.2827 13.389 33.5291 13.3038 33.9333C13.6643 33.0986 13.9954 32.7963 14.1003 32.7109C14.2543 32.747 14.5755 32.7339 15.172 32.3822C15.8472 31.9879 16.86 31.3438 17.1452 30.9363C17.4533 30.496 17.8793 30.2068 18.3382 30.0195C18.3251 29.405 18.312 28.8595 18.3022 28.3994ZM15.4572 30.9988L15.1098 31.0776L15.526 30.3843L16.0144 30.4007L15.4572 30.9988Z" fill="#1E7FB8"/>
<path d="M19.6917 45.251C19.6262 45.274 19.459 45.3496 19.3509 45.3857C19.2394 45.4284 19.0952 45.4876 19.0952 45.527C19.0952 45.5369 19.2034 51.5374 19.2034 51.6689C19.2034 52.9045 19.8196 52.911 19.8196 51.6689C19.8196 51.5801 19.9441 45.1655 19.9441 45.1655C19.9441 45.1655 19.7966 45.2115 19.6917 45.251Z" fill="#1E7FB8"/>
<path d="M19.0557 43.2691C19.2491 43.2001 19.4392 43.141 19.6162 43.0851C19.7506 43.0424 19.8751 43.003 19.9898 42.9668C19.9964 42.5889 20.1013 37.3672 20.1209 36.4175C19.6621 36.5325 19.2622 36.6442 18.9312 36.7691C18.9443 37.4789 19.0426 42.7006 19.0557 43.2691Z" fill="#1E7FB8"/>
<path d="M19.5673 23.2729C17.8367 23.2729 18.5709 25.8953 18.7085 26.7497C18.7151 26.7892 18.8495 32.6714 18.8757 34.022C19.1379 33.953 19.4001 33.884 19.6525 33.8216C19.8328 33.7755 20.0098 33.7328 20.1769 33.6868C20.2031 32.3888 20.331 26.776 20.3342 26.7366C20.4391 25.823 21.347 23.2729 19.5673 23.2729Z" fill="#1E7FB8"/>
<path d="M48.8562 31.6266H48.8299L47.3616 39.8026H45.3491L43.4678 29.8291H45.0672L46.375 37.5155H46.4012L47.8008 29.8291H49.8821L51.2685 37.5155H51.2947L52.6549 29.8291H54.202L52.2813 39.8026H50.2426L48.8562 31.6266Z" fill="#1E7FB8"/>
<path d="M57.0439 32.3296C58.4434 32.3296 60.0593 33.115 60.0593 36.1153C60.0593 39.201 58.4434 39.9174 57.0439 39.9174C55.6444 39.9174 54.0154 39.2043 54.0154 36.1153C54.0187 33.115 55.6444 32.3296 57.0439 32.3296ZM57.0439 38.6588C58.1091 38.6588 58.3517 37.3443 58.3517 36.1153C58.3517 34.8862 58.1124 33.5849 57.0439 33.5849C55.9754 33.5849 55.723 34.8862 55.723 36.1153C55.723 37.3443 55.9787 38.6588 57.0439 38.6588Z" fill="#1E7FB8"/>
<path d="M61.0849 33.6572C61.0849 33.2004 61.0718 32.7732 61.0325 32.4413H62.5271C62.5402 32.885 62.5828 33.3417 62.5828 33.7854H62.609C62.8089 33.2136 63.3301 32.3296 64.356 32.3296C64.4641 32.3296 64.5428 32.3592 64.6379 32.3723V34.0285C64.4904 33.9858 64.3429 33.9562 64.1692 33.9562C63.4907 33.9562 62.7434 34.3999 62.7434 35.7702V39.7991H61.0882V33.6572H61.0849Z" fill="#1E7FB8"/>
<path d="M67.3285 29.0859H65.6733V39.8021H67.3285V29.0859Z" fill="#1E7FB8"/>
<path d="M74.2284 29.0863V38.5439C74.2284 39.073 74.2415 39.5297 74.2808 39.8025H72.7338C72.7076 39.5889 72.6813 39.1584 72.6813 38.6589H72.642C72.3765 39.2866 71.8816 39.9142 70.8164 39.9142C69.1087 39.9142 68.4041 38.1693 68.4041 36.1286C68.4041 33.7297 69.2988 32.3265 70.777 32.3265C71.7636 32.3265 72.311 32.9245 72.5502 33.4996H72.5765V29.083H74.2284V29.0863ZM71.2687 38.6162C72.2421 38.6162 72.5765 37.489 72.5765 36.1023C72.5765 34.6728 72.2028 33.6311 71.2949 33.6311C70.3739 33.6311 70.0527 34.5873 70.0527 36.0595C70.0527 37.7585 70.3083 38.6162 71.2687 38.6162Z" fill="#1E7FB8"/>
<path d="M79.6758 29.8291H81.3834V33.8842H84.1432V29.8291H85.8508V39.8026H84.1432V35.3992H81.3834V39.8026H79.6758V29.8291Z" fill="#1E7FB8"/>
<path d="M92.183 39.444C91.8356 39.6018 91.1145 39.9139 90.1312 39.9139C87.9156 39.9139 86.9585 38.215 86.9585 36.2269C86.9585 34.0251 88.0401 32.3262 89.7838 32.3262C91.2653 32.3262 92.5304 33.2562 92.5304 36.2564V36.5982H88.558C88.558 37.8568 89.0234 38.6126 90.3049 38.6126C91.3177 38.6126 91.7995 38.284 92.1044 38.0408L92.183 39.444ZM90.931 35.4875C90.931 34.1861 90.5311 33.5289 89.7838 33.5289C88.9185 33.5289 88.558 34.5148 88.558 35.4875H90.931Z" fill="#1E7FB8"/>
<path d="M94.012 32.8718C94.4774 32.6418 95.1329 32.3296 96.1851 32.3296C98.3188 32.3296 98.8104 33.4436 98.8104 35.2871V38.501C98.8104 39.0301 98.8629 39.5164 98.9055 39.8023H97.4109C97.3289 39.5164 97.3191 39.1583 97.3191 38.8033H97.2929C96.8799 39.4047 96.3588 39.9174 95.3722 39.9174C94.3037 39.9174 93.3171 39.132 93.3171 37.7616C93.3171 35.7604 94.838 35.2609 96.9324 35.2609H97.2667V34.9914C97.2667 34.2619 96.9323 33.5915 95.9851 33.5915C95.1592 33.5915 94.425 34.0187 94.1038 34.3046L94.012 32.8718ZM97.2634 36.2007H97.1159C95.7032 36.2007 94.8609 36.5162 94.8609 37.5875C94.8609 38.2578 95.2739 38.7179 95.9163 38.7179C96.9029 38.7179 97.2634 37.9325 97.2634 36.618V36.2007Z" fill="#1E7FB8"/>
<path d="M102.094 29.0859H100.439V39.8021H102.094V29.0859Z" fill="#1E7FB8"/>
<path d="M104.16 30.9265L105.815 30.3843V32.4414H107.188V33.7427H105.815V37.558C105.815 38.3434 106.08 38.5734 106.562 38.5734C106.857 38.5734 107.07 38.488 107.188 38.4157V39.6743C106.936 39.8024 106.575 39.9175 106.08 39.9175C104.854 39.9175 104.16 39.3161 104.16 37.7749V33.7427H103.068V32.4414H104.16V30.9265Z" fill="#1E7FB8"/>
<path d="M108.04 29.0859H109.692V33.3875H109.732C110.023 32.9308 110.41 32.3294 111.439 32.3294C112.999 32.3294 113.465 33.5716 113.465 35.0569V39.8021H111.81V35.3855C111.81 34.2584 111.544 33.7852 110.862 33.7852C109.994 33.7852 109.689 34.5706 109.689 35.5137V39.7989H108.037V29.0859H108.04Z" fill="#1E7FB8"/>
<path d="M47.1091 42.4541C49.0429 42.4541 50.8161 43.9986 50.8161 47.5838C50.8161 51.169 49.0429 52.7135 47.1091 52.7135C45.1753 52.7135 43.4021 51.169 43.4021 47.5838C43.4021 43.9986 45.1753 42.4541 47.1091 42.4541ZM47.1091 51.3136C48.1874 51.3136 49.056 50.3278 49.056 47.5838C49.056 44.8399 48.1907 43.854 47.1091 43.854C46.0275 43.854 45.1622 44.8399 45.1622 47.5838C45.1622 50.3278 46.0275 51.3136 47.1091 51.3136Z" fill="#1E7FB8"/>
<path d="M51.9301 46.4272C51.9301 45.9704 51.917 45.5432 51.8777 45.2146H53.3723C53.3854 45.6583 53.4247 46.115 53.4247 46.5587H53.4509C53.6509 45.9869 54.172 45.0996 55.1979 45.0996C55.3061 45.0996 55.3847 45.1292 55.4765 45.1423V46.8018C55.329 46.7591 55.1848 46.7295 55.0111 46.7295C54.3326 46.7295 53.5853 47.1732 53.5853 48.5435V52.5724H51.9334V46.4272H51.9301Z" fill="#1E7FB8"/>
<path d="M56.5028 53.7163C56.8896 53.9463 57.6631 54.344 58.5316 54.344C60.0918 54.344 60.3442 53.1872 60.3442 52.0272V51.3273H60.3179C60.0525 51.8991 59.5838 52.5694 58.5054 52.5694C57.5451 52.5694 56.1062 51.8826 56.1062 48.9119C56.1062 46.8844 56.7879 45.0967 58.5874 45.0967C59.587 45.0967 60.0557 45.7112 60.4032 46.3553H60.4556C60.4556 45.9675 60.4949 45.5995 60.508 45.2117H62.0026C61.9764 45.5962 61.9502 45.984 61.9502 46.3684V51.7972C61.9502 54.0975 61.2979 55.7406 58.7775 55.7406C57.6827 55.7406 56.8174 55.4415 56.4176 55.2838L56.5028 53.7163ZM59.0757 51.2714C60.1147 51.2714 60.5277 50.4729 60.5277 48.8002C60.5277 47.2557 59.9803 46.4276 59.1937 46.444C58.3284 46.4572 57.9941 47.3148 57.9941 48.8166C57.9941 50.5419 58.5152 51.2714 59.0757 51.2714Z" fill="#1E7FB8"/>
<path d="M63.7337 45.6418C64.2024 45.4118 64.8546 45.0996 65.9067 45.0996C68.0405 45.0996 68.5354 46.2136 68.5354 48.0572V51.271C68.5354 51.8001 68.5878 52.2865 68.6271 52.5724H67.1326C67.0539 52.2865 67.0375 51.9283 67.0375 51.5734H67.0113C66.5983 52.1747 66.0772 52.6874 65.0906 52.6874C64.0254 52.6874 63.0388 51.902 63.0388 50.5284C63.0388 48.5271 64.5596 48.0276 66.654 48.0276H66.9883V47.7581C66.9883 47.0286 66.654 46.3582 65.7068 46.3582C64.8808 46.3582 64.1467 46.7854 63.8254 47.0746L63.7337 45.6418ZM66.9851 48.9707H66.8376C65.4249 48.9707 64.5826 49.2862 64.5826 50.3575C64.5826 51.0279 64.9955 51.4846 65.6347 51.4846C66.6212 51.4846 66.9818 50.6992 66.9818 49.3848V48.9707H66.9851Z" fill="#1E7FB8"/>
<path d="M70.2002 46.4274C70.2002 45.9706 70.187 45.5434 70.1477 45.2148H71.6947C71.7079 45.5861 71.7472 45.9706 71.7472 46.3452H71.7865H71.7734C72.0127 45.9016 72.4814 45.103 73.6023 45.103C75.1624 45.103 75.6279 46.3452 75.6279 47.8338V52.5791H73.9727V48.1657C73.9727 47.0353 73.7072 46.5654 73.0255 46.5654C72.1569 46.5654 71.8521 47.3508 71.8521 48.2939V52.5791H70.2002V46.4274Z" fill="#1E7FB8"/>
<path d="M77.1189 42.083H78.8265V43.828H77.1189V42.083ZM77.1451 45.2147H78.8003V52.5725H77.1451V45.2147Z" fill="#1E7FB8"/>
<path d="M80.3376 51.0445L83.2711 46.5556H80.4294V45.2148H84.923V46.7298L82.0453 51.2285H85.0181V52.5726H80.3376V51.0445Z" fill="#1E7FB8"/>
<path d="M86.5814 45.6418C87.0469 45.4118 87.7024 45.0996 88.7545 45.0996C90.8882 45.0996 91.3799 46.2136 91.3799 48.0572V51.271C91.3799 51.8001 91.4323 52.2865 91.4749 52.5724H89.9803C89.8984 52.2865 89.8853 51.9283 89.8853 51.5734H89.859C89.4461 52.1747 88.9249 52.6874 87.9384 52.6874C86.8699 52.6874 85.8833 51.902 85.8833 50.5284C85.8833 48.5271 87.4041 48.0276 89.4952 48.0276H89.8295V47.7581C89.8295 47.0286 89.4952 46.3582 88.548 46.3582C87.722 46.3582 86.9879 46.7854 86.6667 47.0746L86.5814 45.6418ZM89.8361 48.9707H89.6886C88.276 48.9707 87.4336 49.2862 87.4336 50.3575C87.4336 51.0279 87.8466 51.4846 88.4857 51.4846C89.4723 51.4846 89.8328 50.6992 89.8328 49.3848V48.9707H89.8361Z" fill="#1E7FB8"/>
<path d="M93.284 43.6999L94.936 43.1577V45.2149H96.3093V46.5162H94.936V50.3314C94.936 51.1168 95.2014 51.3436 95.6832 51.3436C95.9782 51.3436 96.1913 51.2581 96.3093 51.1858V52.4444C96.0569 52.5726 95.6964 52.6876 95.2014 52.6876C93.9756 52.6876 93.2808 52.0862 93.2808 50.545V46.5162H92.186V45.2149H93.2808V43.6999H93.284Z" fill="#1E7FB8"/>
<path d="M97.447 42.083H99.1547V43.828H97.447V42.083ZM97.6601 45.2147H99.3153V52.5725H97.6601V45.2147Z" fill="#1E7FB8"/>
<path d="M103.606 45.0996C105.005 45.0996 106.618 45.885 106.618 48.8853C106.618 51.971 105.005 52.6874 103.606 52.6874C102.206 52.6874 100.577 51.9743 100.577 48.8853C100.58 45.885 102.206 45.0996 103.606 45.0996ZM103.606 51.4288C104.671 51.4288 104.913 50.1143 104.913 48.8853C104.913 47.6562 104.674 46.3549 103.606 46.3549C102.537 46.3549 102.285 47.6562 102.285 48.8853C102.288 50.1143 102.54 51.4288 103.606 51.4288Z" fill="#1E7FB8"/>
<path d="M108.06 46.4274C108.06 45.9706 108.047 45.5434 108.004 45.2148H109.551C109.565 45.5861 109.607 45.9706 109.607 46.3452H109.646H109.633C109.873 45.9016 110.338 45.103 111.459 45.103C113.019 45.103 113.488 46.3452 113.488 47.8338V52.5791H111.836V48.1657C111.836 47.0353 111.567 46.5654 110.889 46.5654C110.023 46.5654 109.715 47.3508 109.715 48.2939V52.5791H108.063V46.4274H108.06Z" fill="#1E7FB8"/>
<path d="M238.149 17.2266H0.403564V17.8838H238.149V17.2266Z" fill="#1E7FB8"/>
<path d="M235.956 11.8734H238.149V8.00561C238.149 6.97704 238.637 6.21465 239.342 6.21465C239.597 6.21465 239.902 6.26066 240.001 6.30338V3.96034C239.866 3.93076 239.794 3.91433 239.637 3.91433C238.588 3.91433 238.198 4.77859 238.018 5.39311H237.995C237.995 4.95933 237.982 4.40726 237.945 4.09507H235.887C235.923 4.45326 235.959 5.24523 235.959 6.34938V11.8734H235.956ZM231.292 7.32209C231.292 6.24752 231.656 5.56071 232.278 5.56071C232.937 5.56071 233.167 6.05363 233.167 7.09863V7.32209H231.292ZM235.166 8.72528V7.9629C235.166 5.84332 234.229 3.91762 232.242 3.91762C230.328 3.91762 229.296 5.81374 229.296 7.94646C229.296 9.94774 230.04 12.0673 232.609 12.0509C233.498 12.0345 234.304 11.811 234.828 11.604L234.779 9.73743C234.242 10.02 233.524 10.3487 232.927 10.3487C232.111 10.3487 231.403 9.97403 231.344 8.722H235.166V8.72528ZM228.781 4.29224C228.526 4.17394 228.001 3.91762 227.077 3.91762C224.763 3.91762 223.921 5.87289 223.921 7.99247C223.921 10.1121 224.763 12.0542 227.077 12.0542C227.588 12.0542 228.516 11.8439 228.844 11.65L228.781 9.71114C228.647 9.79986 228.1 10.0529 227.562 10.0529C226.49 10.0529 226.162 9.15578 226.162 7.99247C226.162 6.53012 226.795 5.9189 227.601 5.9189C228.077 5.9189 228.444 6.12921 228.673 6.24751L228.781 4.29224ZM217.355 11.8734H219.548V7.6047C219.548 6.79959 219.791 6.09635 220.341 6.09635C220.754 6.09635 220.938 6.45454 220.938 7.2005V11.8734H223.131V6.42496C223.131 4.70958 222.288 3.91762 221.207 3.91762C219.964 3.91762 219.538 4.97577 219.417 5.3964H219.394C219.394 4.96262 219.381 4.41054 219.345 4.09836H217.287C217.323 4.45655 217.359 5.09735 217.359 5.68229V11.8734H217.355ZM214.458 8.36709C214.458 9.09991 214.347 10.3519 213.337 10.3519C212.885 10.3519 212.583 10.0825 212.583 9.39567C212.583 8.4854 213.229 8.11077 214.202 8.11077H214.458V8.36709ZM216.408 6.79959C216.408 5.20251 215.969 3.91762 213.74 3.91762C212.682 3.91762 211.888 4.18708 211.364 4.42369L211.436 6.34938C211.898 5.99119 212.58 5.61657 213.265 5.61657C214.13 5.61657 214.458 6.18508 214.458 6.678V6.91789H213.898C211.692 6.91789 210.633 7.84459 210.633 9.57641C210.633 11.0683 211.436 12.0542 212.557 12.0542C213.324 12.0542 213.825 11.6664 214.458 10.7989C214.458 11.1571 214.507 11.5152 214.53 11.8734H216.48C216.444 11.4101 216.408 10.7824 216.408 10.1581V6.79959ZM210.037 9.23136C209.817 9.4121 209.22 9.81301 208.404 9.81301C206.965 9.81301 206.162 8.43939 206.162 6.64843C206.162 4.61757 206.844 3.45427 208.306 3.45427C209.024 3.45427 209.696 3.85846 209.964 4.05235L210.086 1.75203C209.879 1.64687 209.135 1.27554 208.027 1.27554C205.238 1.27554 203.799 3.51342 203.799 6.58927C203.799 10.2468 205.566 12.0542 208.037 12.0542C208.683 12.0542 209.414 11.9194 210.132 11.65L210.037 9.23136ZM194.284 11.8734H196.477V7.6047C196.477 6.79959 196.72 6.09635 197.27 6.09635C197.683 6.09635 197.867 6.45454 197.867 7.2005V11.8734H200.06V6.42496C200.06 4.70958 199.217 3.91762 198.136 3.91762C196.893 3.91762 196.467 4.97577 196.346 5.3964H196.323C196.323 4.96262 196.31 4.41054 196.274 4.09836H194.216C194.252 4.45655 194.288 5.09735 194.288 5.68229V11.8734H194.284ZM187.185 7.99247C187.185 10.1121 188.027 12.0542 190.341 12.0542C192.655 12.0542 193.498 10.1121 193.498 7.99247C193.498 5.87289 192.655 3.91762 190.341 3.91762C188.024 3.91762 187.185 5.87289 187.185 7.99247ZM189.476 7.99247C189.476 6.85874 189.597 5.73816 190.341 5.73816C191.085 5.73816 191.207 6.85874 191.207 7.99247C191.207 9.1262 191.085 10.2304 190.341 10.2304C189.597 10.2336 189.476 9.12949 189.476 7.99247ZM177.732 11.8734H179.925V7.6047C179.925 6.79959 180.168 6.09635 180.718 6.09635C181.131 6.09635 181.315 6.45454 181.315 7.2005V11.8734H183.508V6.42496C183.508 4.70958 182.665 3.91762 181.584 3.91762C180.84 3.91762 180.279 4.29224 179.915 5.08092H179.879C179.902 4.79831 179.928 4.44012 179.928 4.12465V0.677455H177.736V11.8734H177.732ZM177.064 4.29224C176.808 4.17394 176.284 3.91762 175.359 3.91762C173.045 3.91762 172.203 5.87289 172.203 7.99247C172.203 10.1121 173.042 12.0542 175.359 12.0542C175.871 12.0542 176.798 11.8439 177.126 11.65L177.067 9.71114C176.933 9.79986 176.385 10.0529 175.848 10.0529C174.776 10.0529 174.448 9.15578 174.448 7.99247C174.448 6.53012 175.081 5.9189 175.887 5.9189C176.362 5.9189 176.729 6.12921 176.959 6.24751L177.064 4.29224ZM167.67 11.8734H169.863V8.00561C169.863 6.97704 170.351 6.21465 171.056 6.21465C171.312 6.21465 171.616 6.26066 171.715 6.30338V3.96034C171.58 3.93076 171.508 3.91433 171.351 3.91433C170.302 3.91433 169.912 4.77859 169.732 5.39311H169.709C169.709 4.95933 169.696 4.40726 169.66 4.09507H167.601C167.637 4.45326 167.673 5.24523 167.673 6.34938V11.8734H167.67ZM164.773 8.36709C164.773 9.09991 164.661 10.3519 163.652 10.3519C163.199 10.3519 162.898 10.0825 162.898 9.39567C162.898 8.4854 163.544 8.11077 164.517 8.11077H164.773V8.36709ZM166.72 6.79959C166.72 5.20251 166.28 3.91762 164.052 3.91762C162.993 3.91762 162.2 4.18708 161.675 4.42369L161.747 6.34938C162.21 5.99119 162.891 5.61657 163.576 5.61657C164.442 5.61657 164.769 6.18508 164.769 6.678V6.91789H164.209C162.003 6.91789 160.944 7.84459 160.944 9.57641C160.944 11.0683 161.747 12.0542 162.868 12.0542C163.635 12.0542 164.137 11.6664 164.769 10.7989C164.769 11.1571 164.819 11.5152 164.842 11.8734H166.792C166.756 11.4101 166.72 10.7824 166.72 10.1581V6.79959ZM156.5 7.32209C156.5 6.24752 156.864 5.56071 157.487 5.56071C158.145 5.56071 158.375 6.05363 158.375 7.09863V7.32209H156.5ZM160.374 8.72528V7.9629C160.374 5.84332 159.437 3.91762 157.451 3.91762C155.536 3.91762 154.501 5.81374 154.501 7.94646C154.501 9.94774 155.245 12.0673 157.814 12.0509C158.703 12.0345 159.509 11.811 160.03 11.604L159.981 9.73743C159.443 10.02 158.726 10.3487 158.129 10.3487C157.313 10.3487 156.605 9.97403 156.546 8.722H160.374V8.72528ZM149.325 11.696C149.679 11.8603 150.568 12.0542 151.262 12.0542C153.137 12.0542 153.98 11.1143 153.98 9.50082C153.98 8.14363 153.504 7.68029 152.711 7.32209L151.98 6.99348C151.456 6.75359 151.249 6.57613 151.249 6.30666C151.249 5.88932 151.603 5.73816 152.029 5.73816C152.59 5.73816 153.186 5.99119 153.59 6.21465L153.662 4.27581C153.199 4.08193 152.554 3.91762 151.895 3.91762C149.971 3.91762 149.25 5.09735 149.25 6.47097C149.25 7.45682 149.542 8.21593 150.554 8.66614L151.223 8.96518C151.761 9.20507 151.931 9.35295 151.931 9.62241C151.931 9.98061 151.626 10.1745 151.03 10.1745C150.263 10.1745 149.715 9.83273 149.374 9.62241L149.325 11.696ZM144.855 7.32209C144.855 6.24752 145.222 5.56071 145.841 5.56071C146.5 5.56071 146.729 6.05363 146.729 7.09863V7.32209H144.855ZM148.729 8.72528V7.9629C148.729 5.84332 147.791 3.91762 145.805 3.91762C143.891 3.91762 142.859 5.81374 142.859 7.94646C142.859 9.94774 143.603 12.0673 146.172 12.0509C147.061 12.0345 147.867 11.811 148.391 11.604L148.342 9.73743C147.805 10.02 147.087 10.3487 146.49 10.3487C145.674 10.3487 144.966 9.97403 144.907 8.722H148.729V8.72528ZM140.007 11.8734H142.37L141.603 8.62013C141.262 7.17093 140.944 6.88832 140.459 6.69443V6.64843C141.203 6.42497 142.092 5.79731 142.092 4.25938C142.092 2.33368 141.118 1.45299 139.401 1.45299H136.002V11.8734H138.293V7.79859H138.414C138.781 7.79859 139.158 7.91689 139.378 8.91917L140.007 11.8734ZM138.191 5.80059V3.45755H138.824C139.496 3.45755 139.797 3.96363 139.797 4.6833C139.797 5.35368 139.345 5.80388 138.86 5.80388H138.191V5.80059ZM128.267 11.8734H130.459V8.00561C130.459 6.97704 130.948 6.21465 131.652 6.21465C131.908 6.21465 132.213 6.26066 132.311 6.30338V3.96034C132.177 3.93076 132.105 3.91433 131.944 3.91433C130.895 3.91433 130.505 4.77859 130.325 5.39311H130.302C130.302 4.95933 130.289 4.40726 130.253 4.09507H128.195C128.231 4.45326 128.267 5.24523 128.267 6.34938V11.8734ZM121.164 7.99247C121.164 10.1121 122.006 12.0542 124.32 12.0542C126.634 12.0542 127.477 10.1121 127.477 7.99247C127.477 5.87289 126.638 3.91762 124.32 3.91762C122.003 3.91762 121.164 5.87289 121.164 7.99247ZM123.455 7.99247C123.455 6.85874 123.576 5.73816 124.32 5.73816C125.064 5.73816 125.186 6.85874 125.186 7.99247C125.186 9.1262 125.064 10.2304 124.32 10.2304C123.576 10.2304 123.455 9.12949 123.455 7.99247ZM117.483 11.8734H119.676V5.9189H120.869V4.09836H119.676V3.45755C119.676 2.77074 119.909 2.44213 120.407 2.44213C120.663 2.44213 120.833 2.53085 120.967 2.59L121.017 0.680739C120.774 0.621588 120.348 0.499999 119.591 0.499999C118.313 0.499999 117.483 1.18681 117.483 2.9942V4.09836H116.362V5.9189H117.483V11.8734ZM106.923 4.09836L109.25 11.8767C109.25 12.6095 108.883 13.132 108.214 13.132C107.995 13.132 107.837 13.0729 107.631 12.9973L107.569 14.9362C107.801 15.0249 108.178 15.1892 108.788 15.1892C110.312 15.1892 110.81 14.085 111.177 12.7706L113.553 4.09836H111.423L110.374 9.0539H110.351L109.217 4.09836H106.923ZM106.792 4.29224C106.536 4.17394 106.012 3.91762 105.087 3.91762C102.773 3.91762 101.931 5.87289 101.931 7.99247C101.931 10.1121 102.773 12.0542 105.087 12.0542C105.599 12.0542 106.526 11.8439 106.854 11.65L106.792 9.71114C106.657 9.79986 106.11 10.0529 105.572 10.0529C104.501 10.0529 104.173 9.15578 104.173 7.99247C104.173 6.53012 104.806 5.9189 105.612 5.9189C106.087 5.9189 106.454 6.12921 106.684 6.24751L106.792 4.29224ZM95.3627 11.8734H97.5554V7.6047C97.5554 6.79959 97.798 6.09635 98.3486 6.09635C98.7616 6.09635 98.9451 6.45454 98.9451 7.2005V11.8734H101.138V6.42496C101.138 4.70958 100.299 3.91762 99.2139 3.91762C97.9717 3.91762 97.5456 4.97577 97.4243 5.3964H97.4014C97.4014 4.96262 97.3883 4.41054 97.3522 4.09836H95.2939C95.3299 4.45655 95.366 5.09735 95.366 5.68229V11.8734H95.3627ZM90.6987 7.32209C90.6987 6.24752 91.0658 5.56071 91.6852 5.56071C92.344 5.56071 92.5734 6.05363 92.5734 7.09863V7.32209H90.6987ZM94.5728 8.72528V7.9629C94.5728 5.84332 93.6354 3.91762 91.6492 3.91762C89.735 3.91762 88.6993 5.81374 88.6993 7.94646C88.6993 9.94774 89.4433 12.0673 92.013 12.0509C92.9012 12.0345 93.7075 11.811 94.2286 11.604L94.1795 9.73743C93.642 10.02 92.9241 10.3487 92.3276 10.3487C91.5115 10.3487 90.8035 9.97403 90.7445 8.722H94.5728V8.72528ZM85.7167 7.93332C85.7167 9.18864 85.5954 10.0529 84.8645 10.0529C84.1565 10.0529 84.0123 9.15578 84.0123 7.82816C84.0123 6.69443 84.1828 5.85646 84.8153 5.85646C85.4381 5.85975 85.7167 6.61885 85.7167 7.93332ZM82.0752 14.6667C82.403 14.8441 83.5141 15.1892 84.4613 15.1892C86.9458 15.1892 87.9094 13.6381 87.9094 10.904V5.9189C87.9094 5.15651 87.9455 4.56171 87.9815 4.09836H85.9232C85.874 4.48612 85.838 4.99548 85.838 5.36682H85.815C85.5364 4.62086 85.0349 3.91762 84.0844 3.91762C82.5866 3.91762 81.7213 5.72501 81.7213 7.72301C81.7213 10.1548 82.3899 11.8734 84.1205 11.8734C84.8874 11.8734 85.52 11.3378 85.815 10.3355H85.838V10.9172C85.838 12.3795 85.3856 13.2471 84.1074 13.2471C83.17 13.2471 82.5472 12.8133 82.1474 12.5307L82.0752 14.6667ZM78.2994 7.66385H76.618L77.5325 3.57257H77.5554L78.2994 7.66385ZM79.1778 11.8734H81.541L78.837 1.45299H76.3165L73.4912 11.8734H75.6839L76.2313 9.66513H78.7288L79.1778 11.8734ZM67.9323 11.8734H70.1251V0.677455H67.9323V11.8734ZM64.9366 8.36709C64.9366 9.09991 64.8284 10.3519 63.8157 10.3519C63.3633 10.3519 63.0618 10.0825 63.0618 9.39567C63.0618 8.4854 63.7075 8.11077 64.681 8.11077H64.9366V8.36709ZM66.8868 6.79959C66.8868 5.20251 66.4476 3.91762 64.2188 3.91762C63.1601 3.91762 62.367 4.18708 61.8425 4.42369L61.9146 6.34938C62.3768 5.99119 63.0585 5.61657 63.7403 5.61657C64.6056 5.61657 64.9333 6.18508 64.9333 6.678V6.91789H64.3729C62.167 6.91789 61.1084 7.84459 61.1084 9.57641C61.1084 11.0683 61.9114 12.0542 63.0323 12.0542C63.7993 12.0542 64.3008 11.6664 64.9333 10.7989C64.9333 11.1571 64.9825 11.5152 65.0054 11.8734H66.9556C66.9196 11.4101 66.8835 10.7824 66.8835 10.1581V6.79959H66.8868ZM54.6056 11.8734H56.7983V7.6047C56.7983 6.79959 57.0408 6.09635 57.5915 6.09635C58.0045 6.09635 58.188 6.45454 58.188 7.2005V11.8734H60.3807V6.42496C60.3807 4.70958 59.5384 3.91762 58.4568 3.91762C57.2145 3.91762 56.7885 4.97577 56.6672 5.3964H56.6442C56.6442 4.96262 56.6311 4.41054 56.5951 4.09836H54.5367C54.5728 4.45655 54.6088 5.09735 54.6088 5.68229V11.8734H54.6056ZM47.5063 7.99247C47.5063 10.1121 48.3486 12.0542 50.6626 12.0542C52.9766 12.0542 53.8189 10.1121 53.8189 7.99247C53.8189 5.87289 52.9766 3.91762 50.6626 3.91762C48.3453 3.91762 47.5063 5.87289 47.5063 7.99247ZM49.7973 7.99247C49.7973 6.85874 49.9186 5.73816 50.6626 5.73816C51.4066 5.73816 51.5279 6.85874 51.5279 7.99247C51.5279 9.1262 51.4066 10.2304 50.6626 10.2304C49.9186 10.2336 49.7973 9.12949 49.7973 7.99247ZM44.422 2.91862H46.6147V0.680739H44.422V2.91862ZM44.422 11.8734H46.6147V4.09507H44.422V11.8734ZM39.1844 5.9189H40.2693V9.77029C40.2693 11.2195 41.0985 12.0542 42.3047 12.0542C42.9373 12.0542 43.4748 11.949 43.7534 11.8734L43.6911 10.0529C43.5928 10.1285 43.3994 10.1712 43.1798 10.1712C42.7898 10.1712 42.462 9.88859 42.462 9.23136V5.9189H43.6911V4.09836H42.462V1.62058L40.2693 2.45527V4.09836H39.1844V5.9189ZM36.736 8.36709C36.736 9.09991 36.6279 10.3519 35.6151 10.3519C35.1628 10.3519 34.8579 10.0825 34.8579 9.39567C34.8579 8.4854 35.5036 8.11077 36.4771 8.11077H36.7327V8.36709H36.736ZM38.6862 6.79959C38.6862 5.20251 38.247 3.91762 36.0182 3.91762C34.9596 3.91762 34.1664 4.18708 33.642 4.42369L33.7141 6.34938C34.1762 5.99119 34.8579 5.61657 35.543 5.61657C36.4083 5.61657 36.736 6.18508 36.736 6.678V6.91789H36.1755C33.9697 6.91789 32.911 7.84459 32.911 9.57641C32.911 11.0683 33.7141 12.0542 34.835 12.0542C35.602 12.0542 36.1034 11.6664 36.736 10.7989C36.736 11.1571 36.7852 11.5152 36.8081 11.8734H38.7583C38.7223 11.4101 38.6862 10.7824 38.6862 10.1581V6.79959ZM26.4083 11.8734H28.601V7.6047C28.601 6.79959 28.8435 6.09635 29.3942 6.09635C29.8071 6.09635 29.9907 6.45454 29.9907 7.2005V11.8734H32.1834V6.42496C32.1834 4.70958 31.3411 3.91762 30.2595 3.91762C29.0172 3.91762 28.5912 4.97577 28.4699 5.3964H28.4469C28.4469 4.96262 28.4338 4.41054 28.3978 4.09836H26.3394C26.3755 4.45655 26.4115 5.09735 26.4115 5.68229V11.8734H26.4083ZM21.718 11.8734H23.9107V8.00561C23.9107 6.97704 24.3991 6.21465 25.1038 6.21465C25.3594 6.21465 25.6642 6.26066 25.7626 6.30338V3.96034C25.6282 3.93076 25.5561 3.91433 25.3955 3.91433C24.3466 3.91433 23.9566 4.77859 23.7763 5.39311H23.7534C23.7534 4.95933 23.7403 4.40726 23.7042 4.09507H21.6459C21.6819 4.45326 21.718 5.24523 21.718 6.34938V11.8734ZM17.0539 7.32209C17.0539 6.24752 17.421 5.56071 18.0405 5.56071C18.6993 5.56071 18.9287 6.05363 18.9287 7.09863V7.32209H17.0539ZM20.9281 8.72528V7.9629C20.9281 5.84332 19.9907 3.91762 18.0045 3.91762C16.0903 3.91762 15.0546 5.81374 15.0546 7.94646C15.0546 9.94774 15.7986 12.0673 18.3683 12.0509C19.2565 12.0345 20.0628 11.811 20.5839 11.604L20.5348 9.73743C19.9972 10.02 19.2794 10.3487 18.6829 10.3487C17.8668 10.3487 17.1588 9.97403 17.0998 8.722H20.9281V8.72528ZM10.0726 5.9189H11.1575V9.77029C11.1575 11.2195 11.9868 12.0542 13.1929 12.0542C13.8255 12.0542 14.363 11.949 14.6416 11.8734L14.5793 10.0529C14.481 10.1285 14.2876 10.1712 14.068 10.1712C13.678 10.1712 13.3502 9.88859 13.3502 9.23136V5.9189H14.5793V4.09836H13.3502V1.62058L11.1575 2.45527V4.09836H10.0726V5.9189ZM3.79928 11.8734H5.992V7.6047C5.992 6.79959 6.23454 6.09635 6.78518 6.09635C7.19816 6.09635 7.38171 6.45454 7.38171 7.2005V11.8734H9.57443V6.42496C9.57443 4.70958 8.73208 3.91762 7.65047 3.91762C6.40826 3.91762 5.98217 4.97577 5.8609 5.3964H5.83467C5.83467 4.96262 5.82156 4.41054 5.78551 4.09836H3.72717C3.76322 4.45655 3.79928 5.09735 3.79928 5.68229V11.8734ZM0.400391 11.8734H2.69144V1.45299H0.400391V11.8734Z" fill="#1E7FB8"/>
</svg>

